<svg xmlns="http://www.w3.org/2000/svg" version="1.1" xmlns:xlink="http://www.w3.org/1999/xlink" xmlns:svgjs="http://svgjs.dev/svgjs" width="2000" height="1500" viewBox="0 0 2000 1500"><rect width="2000" height="1500" fill="#d498ca"></rect><g transform="matrix(0.75,0,0,0.75,248.49236721476927,160.5957778640086)"><svg viewBox="0 0 316 248" data-background-color="#d498ca" preserveAspectRatio="xMidYMid meet" height="1569" width="2000" xmlns="http://www.w3.org/2000/svg" xmlns:xlink="http://www.w3.org/1999/xlink"><g id="tight-bounds" transform="matrix(1,0,0,1,0.3176079734219286,0.216908510495756)"><svg viewBox="0 0 315.36478405315614 247.2" height="247.2" width="315.36478405315614"><g><svg viewBox="0 0 315.36478405315614 247.2" height="247.2" width="315.36478405315614"><g><svg viewBox="0 0 315.36478405315614 247.2" height="247.2" width="315.36478405315614"><g id="textblocktransform"><svg viewBox="0 0 315.36478405315614 247.2" height="247.2" width="315.36478405315614" id="textblock"><g><svg viewBox="0 0 315.36478405315614 247.2" height="247.2" width="315.36478405315614"><g transform="matrix(1,0,0,1,0,0)"><svg width="315.36478405315614" viewBox="3.95 -28.65 41.4 32.41666299993" height="247.2" data-palette-color="#ffffff"><path d="M4.05-15.45L4.05-15.45 3.95-16.25Q3.95-19.75 7-22.5L7-22.5Q12.45-27.35 24.6-28.5L24.6-28.5Q26.45-28.65 28.93-28.65 31.4-28.65 35.2-27.93 39-27.2 41.45-25.25L41.45-25.25Q45.35-22.05 45.35-16.88 45.35-11.7 42.28-7.33 39.2-2.95 34.45-0.55 29.7 1.85 24.3 1.85 18.9 1.85 15.55-0.7L15.55-0.7Q15.5-0.65 15.08 0.15 14.65 0.95 14.2 1.7L14.2 1.7Q11.9 5.35 10.1 2.7L10.1 2.7Q9.05 1.15 9.05-1 9.05-3.15 9.5-6.2L9.5-6.2Q9.55-6.5 9.1-7.6L9.1-7.6Q8.95-8.1 9.45-8.6L9.45-8.6Q9.85-8.9 10.58-9.1 11.3-9.3 11.58-9.1 11.85-8.9 11.45-8.03 11.05-7.15 11.05-6.4 11.05-5.65 12.6-4.17 14.15-2.7 14.5-2.6L14.5-2.6Q15.7-5.55 19.6-13.65L19.6-13.65Q20.05-14.55 20.05-15 20.05-15.45 19.95-15.7L19.95-15.7Q20.2-17.15 23.13-20.3 26.05-23.45 27.85-23.45L27.85-23.45Q28.55-23.45 29.6-22.98 30.65-22.5 30.8-21.65L30.8-21.65Q30.8-21.35 30.75-21.33 30.7-21.3 30.5-21.4 30.3-21.5 30.2-21.5L30.2-21.5Q28.6-21.5 26.43-19.18 24.25-16.85 22.1-13.1L22.1-13.1Q18.3-6.6 16-1.6L16-1.6Q19.1 0.65 22.75 0.65L22.75 0.65Q27.5 0.65 31.85-1.8 36.2-4.25 38.85-7.45L38.85-7.45Q43.15-12.7 43.15-17.8L43.15-17.8Q43.15-21.55 40.18-24.5 37.2-27.45 30.75-27.65L30.75-27.65Q30.45-27.65 30.15-27.65L30.15-27.65Q25.05-27.65 19.4-25.98 13.75-24.3 9.75-21.2 5.75-18.1 5.75-14.75L5.75-14.75Q5.75-13.9 6.28-13.25 6.8-12.6 7.38-12.35 7.95-12.1 8.83-11.8 9.7-11.5 9.98-11.38 10.25-11.25 10.3-11.1L10.3-11.1Q10.4-10.7 9.6-10.7L9.6-10.7Q7.75-10.85 5.88-12.08 4-13.3 4-14.95L4-14.95Q4-15.2 4.05-15.45ZM10.8-4.5L10.8-4.5Q10.8 2.25 11.75 2.25L11.75 2.25Q12.45 2.25 13.75-1.25L13.75-1.25Q13.85-1.4 13.85-1.45L13.85-1.45Q13.5-1.75 12.38-2.93 11.25-4.1 10.8-4.5Z" opacity="1" transform="matrix(1,0,0,1,0,0)" fill="#ffffff" class="wordmark-text-0" data-fill-palette-color="primary" id="text-0"></path></svg></g></svg></g></svg></g></svg></g></svg></g><defs></defs></svg><rect width="315.36478405315614" height="247.2" fill="none" stroke="none" visibility="hidden"></rect></g></svg></g></svg>