<svg xmlns="http://www.w3.org/2000/svg" version="1.1" xmlns:xlink="http://www.w3.org/1999/xlink" xmlns:svgjs="http://svgjs.dev/svgjs" width="2000" height="1252" viewBox="0 0 2000 1252"><g transform="matrix(1,0,0,1,-1.2121212121212466,-2.01935483870966)"><svg viewBox="0 0 396 248" data-background-color="#ffffff" preserveAspectRatio="xMidYMid meet" height="1252" width="2000" xmlns="http://www.w3.org/2000/svg" xmlns:xlink="http://www.w3.org/1999/xlink"><g id="tight-bounds" transform="matrix(1,0,0,1,0.2400000000000091,0.4000000000000057)"><svg viewBox="0 0 395.52 247.2" height="247.2" width="395.52"><g><svg></svg></g><g><svg viewBox="0 0 395.52 247.2" height="247.2" width="395.52"><mask id="50012fe8-c3e8-4baa-939c-93a5bf9efd84"><rect width="395.52" height="247.2" fill="white"></rect><g transform="matrix(1,0,0,1,118.0877289849867,37.08)" id="clone"><svg viewBox="0 0 159.3445420300266 173.04" height="173.04" width="159.3445420300266"><g><svg viewBox="0 0 159.3445420300266 173.04" height="173.04" width="159.3445420300266"><g><svg viewBox="0 0 159.3445420300266 173.04" height="173.04" width="159.3445420300266"><g><svg viewBox="0 0 159.3445420300266 173.04" height="173.04" width="159.3445420300266"><g id="SvgjsG1502"><svg viewBox="0 0 159.3445420300266 173.04" height="173.04" width="159.3445420300266" id="SvgjsSvg1501"><g><svg viewBox="0 0 159.3445420300266 173.04" height="173.04" width="159.3445420300266"><g transform="matrix(1,0,0,1,0,0)"><svg width="159.3445420300266" viewBox="-4.51 -37.985 37.2184375 40.33625" height="173.04" data-palette-color="#e363aa"><path d="M-1.03-34.81L-1.03-34.81Q0.68-34.57 1.95-34.42 3.22-34.28 4.05-34.18L4.05-34.18Q5.03-34.08 5.71-34.03L5.71-34.03Q6.49-33.94 7.64-34.13 8.79-34.33 10.11-34.55 11.43-34.77 12.84-34.91 14.26-35.06 15.58-34.91L15.58-34.91Q16.46-34.81 17.82-34.52 19.19-34.23 20.73-33.59 22.27-32.96 23.83-31.93 25.39-30.91 26.66-29.35 27.93-27.78 28.76-25.63 29.59-23.49 29.69-20.61L29.69-20.61Q29.83-16.31 28.91-12.79 27.98-9.28 26.05-6.79 24.12-4.3 21.19-2.88 18.26-1.46 14.36-1.32L14.36-1.32Q11.38-1.07 8.5-0.88L8.5-0.88Q7.28-0.78 5.93-0.73 4.59-0.68 3.27-0.66 1.95-0.63 0.73-0.68-0.49-0.73-1.51-0.83L-1.51-0.83Q-0.39-1.37 0.32-1.9 1.03-2.44 1.42-2.83L1.42-2.83Q1.86-3.32 2.05-3.71L2.05-3.71Q2.15-4.25 2.34-5.81L2.34-5.81Q2.49-7.13 2.73-9.57 2.98-12.01 3.32-16.21L3.32-16.21 3.61-19.68Q3.86-22.9 3.83-24.95 3.81-27 3.71-28.17L3.71-28.17Q3.56-29.54 3.32-30.18L3.32-30.18Q3.13-30.71 2.59-31.45L2.59-31.45Q2.1-32.03 1.25-32.89 0.39-33.74-1.03-34.81ZM9.18-20.41L9.28-16.85Q9.38-12.5 9.74-10.18 10.11-7.86 10.55-6.74L10.55-6.74Q11.08-5.47 11.72-5.22L11.72-5.22Q12.65-5.22 13.82-6.03 14.99-6.84 16.14-8.5 17.29-10.16 18.24-12.65 19.19-15.14 19.63-18.46L19.63-18.46Q20.07-21.78 19.38-24.32 18.7-26.86 17.58-28.59 16.46-30.32 15.28-31.23 14.11-32.13 13.53-32.13L13.53-32.13Q12.84-32.13 12.3-31.76 11.77-31.4 10.79-30.13L10.79-30.13Q10.3-29.44 9.91-28.17L9.91-28.17Q9.57-27.05 9.33-25.2 9.08-23.34 9.18-20.41L9.18-20.41Z" opacity="1" transform="matrix(1,0,0,1,0,0)" fill="black" class="wordmark-text-0" id="SvgjsPath1500" stroke-width="5" stroke="black" stroke-linejoin="round"></path></svg></g></svg></g></svg></g></svg></g></svg></g></svg></g></svg></g></mask><g mask="url(#50012fe8-c3e8-4baa-939c-93a5bf9efd84)"><g><path d="M120.847 37.211v0c5.795 0.813 10.845 1.474 15.149 1.983 4.304 0.474 7.863 0.881 10.676 1.22v0c3.321 0.339 6.134 0.593 8.439 0.763v0c2.644 0.305 5.914 0.136 9.812-0.509 3.898-0.678 8.083-1.39 12.557-2.135 4.474-0.746 9.1-1.356 13.878-1.83 4.813-0.508 9.456-0.508 13.93 0v0c2.982 0.339 6.778 1 11.387 1.983 4.643 0.983 9.574 2.559 14.794 4.728 5.219 2.135 10.473 4.948 15.76 8.439 5.287 3.457 10.083 7.829 14.387 13.116 4.304 5.321 7.863 11.625 10.675 18.911 2.813 7.253 4.389 15.76 4.728 25.52v0c0.474 14.573-0.847 27.825-3.965 39.755-3.152 11.896-7.998 22.063-14.539 30.503-6.541 8.439-14.777 15.065-24.707 19.877-9.93 4.813-21.504 7.456-34.722 7.931v0c-10.1 0.847-20.03 1.593-29.791 2.237v0c-4.135 0.339-8.49 0.593-13.065 0.762-4.541 0.169-9.049 0.288-13.523 0.356-4.474 0.102-8.778 0.068-12.913-0.102-4.135-0.169-7.931-0.424-11.387-0.762v0c3.796-1.83 6.897-3.643 9.303-5.44 2.406-1.83 4.27-3.406 5.592-4.728v0c1.491-1.661 2.559-3.152 3.203-4.473v0c0.339-1.83 0.83-5.389 1.474-10.676v0c0.508-4.474 1.169-10.845 1.983-19.115 0.847-8.27 1.847-19.522 2.999-33.756v0l1.474-17.641c0.847-10.913 1.22-19.844 1.119-26.791-0.068-6.948-0.271-12.404-0.61-16.37v0c-0.508-4.643-1.169-8.049-1.983-10.218v0c-0.644-1.796-1.881-3.948-3.711-6.456v0c-1.661-1.966-3.931-4.406-6.812-7.321-2.915-2.881-6.778-6.134-11.591-9.761zM172.752 110.417l0.508 18.098c0.339 14.743 1.118 26.046 2.339 33.909 1.254 7.863 2.627 13.692 4.118 17.488v0c1.796 4.304 3.779 6.88 5.948 7.727v0c3.152 0 6.711-1.373 10.675-4.118 3.965-2.745 7.897-6.931 11.795-12.556 3.898-5.626 7.456-12.659 10.676-21.098 3.22-8.439 5.575-18.285 7.066-29.536v0c1.491-11.252 1.068-21.182-1.271-29.791-2.305-8.608-5.355-15.844-9.151-21.708-3.796-5.863-7.693-10.337-11.692-13.421-3.965-3.05-6.931-4.575-8.897-4.575v0c-2.339 0-4.423 0.627-6.253 1.881-1.796 1.22-4.355 3.982-7.676 8.286v0c-1.661 2.339-3.152 5.66-4.474 9.964v0c-1.152 3.796-2.135 8.829-2.949 15.099-0.847 6.304-1.101 14.421-0.762 24.351z" fill="#e363aa" fill-rule="nonzero" stroke="none" stroke-width="1" stroke-linecap="butt" stroke-linejoin="miter" stroke-miterlimit="10" stroke-dasharray="" stroke-dashoffset="0" font-family="none" font-weight="none" font-size="none" text-anchor="none" style="mix-blend-mode: normal" data-fill-palette-color="tertiary"></path></g></g><g transform="matrix(1,0,0,1,118.0877289849867,37.08)"><svg viewBox="0 0 159.3445420300266 173.04" height="173.04" width="159.3445420300266"><g><svg viewBox="0 0 159.3445420300266 173.04" height="173.04" width="159.3445420300266"><g><svg viewBox="0 0 159.3445420300266 173.04" height="173.04" width="159.3445420300266"><g><svg viewBox="0 0 159.3445420300266 173.04" height="173.04" width="159.3445420300266"><g id="textblocktransform"><svg viewBox="0 0 159.3445420300266 173.04" height="173.04" width="159.3445420300266" id="textblock"><g><svg viewBox="0 0 159.3445420300266 173.04" height="173.04" width="159.3445420300266"><g transform="matrix(1,0,0,1,0,0)"><svg width="159.3445420300266" viewBox="-4.51 -37.985 37.2184375 40.33625" height="173.04" data-palette-color="#e363aa"><path d="M-1.03-34.81L-1.03-34.81Q0.68-34.57 1.95-34.42 3.22-34.28 4.05-34.18L4.05-34.18Q5.03-34.08 5.71-34.03L5.71-34.03Q6.49-33.94 7.64-34.13 8.79-34.33 10.11-34.55 11.43-34.77 12.84-34.91 14.26-35.06 15.58-34.91L15.58-34.91Q16.46-34.81 17.82-34.52 19.19-34.23 20.73-33.59 22.27-32.96 23.83-31.93 25.39-30.91 26.66-29.35 27.93-27.78 28.76-25.63 29.59-23.49 29.69-20.61L29.69-20.61Q29.83-16.31 28.91-12.79 27.98-9.28 26.05-6.79 24.12-4.3 21.19-2.88 18.26-1.46 14.36-1.32L14.36-1.32Q11.38-1.07 8.5-0.88L8.5-0.88Q7.28-0.78 5.93-0.73 4.59-0.68 3.27-0.66 1.95-0.63 0.73-0.68-0.49-0.73-1.51-0.83L-1.51-0.83Q-0.39-1.37 0.32-1.9 1.03-2.44 1.42-2.83L1.42-2.83Q1.86-3.32 2.05-3.71L2.05-3.71Q2.15-4.25 2.34-5.81L2.34-5.81Q2.49-7.13 2.73-9.57 2.98-12.01 3.32-16.21L3.32-16.21 3.61-19.68Q3.86-22.9 3.83-24.95 3.81-27 3.71-28.17L3.71-28.17Q3.56-29.54 3.32-30.18L3.32-30.18Q3.13-30.71 2.59-31.45L2.59-31.45Q2.1-32.03 1.25-32.89 0.39-33.74-1.03-34.81ZM9.18-20.41L9.28-16.85Q9.38-12.5 9.74-10.18 10.11-7.86 10.55-6.74L10.55-6.74Q11.08-5.47 11.72-5.22L11.72-5.22Q12.65-5.22 13.82-6.03 14.99-6.84 16.14-8.5 17.29-10.16 18.24-12.65 19.19-15.14 19.63-18.46L19.63-18.46Q20.07-21.78 19.38-24.32 18.7-26.86 17.58-28.59 16.46-30.32 15.28-31.23 14.11-32.13 13.53-32.13L13.53-32.13Q12.84-32.13 12.3-31.76 11.77-31.4 10.79-30.13L10.79-30.13Q10.3-29.44 9.91-28.17L9.91-28.17Q9.57-27.05 9.33-25.2 9.08-23.34 9.18-20.41L9.18-20.41Z" opacity="1" transform="matrix(1,0,0,1,0,0)" fill="#e363aa" class="wordmark-text-0" data-fill-palette-color="primary" id="text-0"></path></svg></g></svg></g></svg></g></svg></g></svg></g></svg></g></svg></g></svg></g><defs></defs></svg><rect width="395.52" height="247.2" fill="none" stroke="none" visibility="hidden"></rect></g></svg></g></svg>